<svg width="22" height="18" viewBox="0 0 22 18" fill="none" xmlns="http://www.w3.org/2000/svg">
<path d="M16 5.906L16.126 5.802C18.242 4.056 19.3 3.183 20.15 3.605C21 4.026 21 5.424 21 8.218V9.782C21 12.576 21 13.974 20.15 14.395C19.3 14.816 18.242 13.944 16.126 12.198L16 12.094M1 8C1 4.7 1 3.05 2.025 2.025C3.05 1 4.7 1 8 1H9C12.3 1 13.95 1 14.975 2.025C16 3.05 16 4.7 16 8V10C16 13.3 16 14.95 14.975 15.975C13.95 17 12.3 17 9 17H8C4.7 17 3.05 17 2.025 15.975C1 14.95 1 13.3 1 10V8Z" stroke="black" stroke-opacity="0.5" stroke-width="1.5" stroke-linecap="round" stroke-linejoin="round"/>
<path d="M10.5 8C11.3284 8 12 7.32843 12 6.5C12 5.67157 11.3284 5 10.5 5C9.67157 5 9 5.67157 9 6.5C9 7.32843 9.67157 8 10.5 8Z" stroke="black" stroke-opacity="0.5" stroke-width="1.5" stroke-linecap="round" stroke-linejoin="round"/>
</svg>
